<mxfile host="65bd71144e">
    <diagram id="lJCfZGjwsKhBsBh-53S9" name="Página-1">
        <mxGraphModel dx="1002" dy="477" grid="1" gridSize="10" guides="1" tooltips="1" connect="1" arrows="1" fold="1" page="1" pageScale="1" pageWidth="827" pageHeight="1169" background="#ffffff" math="0" shadow="0">
            <root>
                <mxCell id="0"/>
                <mxCell id="1" parent="0"/>
                <mxCell id="15" value="" style="edgeStyle=none;html=1;fontColor=#000000;" parent="1" source="13" target="14" edge="1">
                    <mxGeometry relative="1" as="geometry"/>
                </mxCell>
                <mxCell id="13" value="Inicio del&lt;br&gt;programa" style="rounded=1;whiteSpace=wrap;html=1;labelBackgroundColor=none;fillStyle=auto;fontColor=#000000;fillColor=#FFFFFF;gradientColor=none;strokeWidth=1;fontFamily=Courier New;" parent="1" vertex="1">
                    <mxGeometry x="390" y="12" width="90" height="30" as="geometry"/>
                </mxCell>
                <mxCell id="17" value="" style="edgeStyle=none;html=1;fontFamily=Courier New;fontColor=#000000;" parent="1" source="14" target="16" edge="1">
                    <mxGeometry relative="1" as="geometry"/>
                </mxCell>
                <mxCell id="14" value="Obtener valores&lt;br&gt;&amp;nbsp;de entrada" style="shape=parallelogram;perimeter=parallelogramPerimeter;whiteSpace=wrap;html=1;fixedSize=1;fillColor=#FFFFFF;fontColor=#000000;rounded=1;labelBackgroundColor=none;fillStyle=auto;gradientColor=none;strokeWidth=1;fontFamily=Courier New;" parent="1" vertex="1">
                    <mxGeometry x="363.75" y="54" width="142.5" height="35" as="geometry"/>
                </mxCell>
                <mxCell id="19" value="" style="edgeStyle=none;html=1;fontFamily=Courier New;fontColor=#000000;" parent="1" source="16" target="18" edge="1">
                    <mxGeometry relative="1" as="geometry"/>
                </mxCell>
                <mxCell id="16" value="&lt;div&gt;Validar entrada&amp;nbsp;&lt;br&gt;&lt;span style=&quot;background-color: initial;&quot;&gt;(función validar)&lt;/span&gt;&lt;/div&gt;" style="whiteSpace=wrap;html=1;fontFamily=Courier New;fillColor=#FFFFFF;fontColor=#000000;rounded=1;labelBackgroundColor=none;fillStyle=auto;gradientColor=none;strokeWidth=1;" parent="1" vertex="1">
                    <mxGeometry x="367.5" y="103" width="135" height="28.5" as="geometry"/>
                </mxCell>
                <mxCell id="23" value="" style="edgeStyle=none;html=1;fontFamily=Courier New;fontColor=#000000;" parent="1" source="18" target="22" edge="1">
                    <mxGeometry relative="1" as="geometry"/>
                </mxCell>
                <mxCell id="36" style="edgeStyle=none;html=1;entryX=1;entryY=0.5;entryDx=0;entryDy=0;" edge="1" parent="1" source="18" target="24">
                    <mxGeometry relative="1" as="geometry"/>
                </mxCell>
                <mxCell id="18" value="¿Entrada válida?" style="rhombus;whiteSpace=wrap;html=1;fontFamily=Courier New;fillColor=#FFFFFF;fontColor=#000000;rounded=1;labelBackgroundColor=none;fillStyle=auto;gradientColor=none;strokeWidth=1;" parent="1" vertex="1">
                    <mxGeometry x="395" y="145" width="80" height="68.25" as="geometry"/>
                </mxCell>
                <mxCell id="28" value="" style="edgeStyle=none;html=1;" edge="1" parent="1" source="22" target="27">
                    <mxGeometry relative="1" as="geometry"/>
                </mxCell>
                <mxCell id="22" value="Inicializar variables y estructuras" style="whiteSpace=wrap;html=1;fontFamily=Courier New;fillColor=#FFFFFF;fontColor=#000000;rounded=1;labelBackgroundColor=none;fillStyle=auto;gradientColor=none;strokeWidth=1;" parent="1" vertex="1">
                    <mxGeometry x="382.5" y="226" width="105" height="47.62" as="geometry"/>
                </mxCell>
                <mxCell id="26" style="edgeStyle=none;html=1;" edge="1" parent="1" source="24" target="16">
                    <mxGeometry relative="1" as="geometry">
                        <Array as="points">
                            <mxPoint x="300" y="120"/>
                        </Array>
                    </mxGeometry>
                </mxCell>
                <mxCell id="24" value="Volver a pedir datos" style="whiteSpace=wrap;html=1;fontFamily=Courier New;fillColor=#FFFFFF;fontColor=#000000;rounded=1;labelBackgroundColor=none;fillStyle=auto;gradientColor=none;strokeWidth=1;" vertex="1" parent="1">
                    <mxGeometry x="250" y="161.89999999999998" width="100" height="33.81" as="geometry"/>
                </mxCell>
                <mxCell id="30" value="" style="edgeStyle=none;html=1;" edge="1" parent="1" source="27" target="29">
                    <mxGeometry relative="1" as="geometry"/>
                </mxCell>
                <mxCell id="77" value="" style="edgeStyle=orthogonalEdgeStyle;html=1;" edge="1" parent="1" source="27" target="76">
                    <mxGeometry relative="1" as="geometry"/>
                </mxCell>
                <mxCell id="27" value="iteraciones &lt;br&gt;de cada corrida" style="rhombus;whiteSpace=wrap;html=1;fontFamily=Courier New;fillColor=#FFFFFF;fontColor=#000000;rounded=1;labelBackgroundColor=none;fillStyle=auto;gradientColor=none;strokeWidth=1;" vertex="1" parent="1">
                    <mxGeometry x="380" y="287" width="110" height="101.43" as="geometry"/>
                </mxCell>
                <mxCell id="32" value="" style="edgeStyle=none;html=1;" edge="1" parent="1" source="29" target="31">
                    <mxGeometry relative="1" as="geometry"/>
                </mxCell>
                <mxCell id="29" value="generar numero aleatorio" style="rounded=1;whiteSpace=wrap;html=1;fontFamily=Courier New;fillColor=#FFFFFF;fontColor=#000000;labelBackgroundColor=none;fillStyle=auto;gradientColor=none;strokeWidth=1;" vertex="1" parent="1">
                    <mxGeometry x="382.5" y="402" width="105" height="37.85" as="geometry"/>
                </mxCell>
                <mxCell id="34" value="" style="edgeStyle=none;html=1;" edge="1" parent="1" source="31" target="33">
                    <mxGeometry relative="1" as="geometry"/>
                </mxCell>
                <mxCell id="38" value="" style="edgeStyle=none;html=1;" edge="1" parent="1" source="31" target="37">
                    <mxGeometry relative="1" as="geometry"/>
                </mxCell>
                <mxCell id="31" value="cantidad mayor apuesta" style="rhombus;whiteSpace=wrap;html=1;fontFamily=Courier New;fillColor=#FFFFFF;fontColor=#000000;rounded=1;labelBackgroundColor=none;fillStyle=auto;gradientColor=none;strokeWidth=1;" vertex="1" parent="1">
                    <mxGeometry x="375" y="454" width="120" height="85" as="geometry"/>
                </mxCell>
                <mxCell id="40" value="" style="edgeStyle=none;html=1;" edge="1" parent="1" source="33" target="39">
                    <mxGeometry relative="1" as="geometry"/>
                </mxCell>
                <mxCell id="33" value="obtener color" style="whiteSpace=wrap;html=1;fontFamily=Courier New;fillColor=#FFFFFF;fontColor=#000000;rounded=1;labelBackgroundColor=none;fillStyle=auto;gradientColor=none;strokeWidth=1;" vertex="1" parent="1">
                    <mxGeometry x="383" y="552" width="102" height="28" as="geometry"/>
                </mxCell>
                <mxCell id="37" value="FIN" style="whiteSpace=wrap;html=1;fontFamily=Courier New;fillColor=#FFFFFF;fontColor=#000000;rounded=1;labelBackgroundColor=none;fillStyle=auto;gradientColor=none;strokeWidth=1;" vertex="1" parent="1">
                    <mxGeometry x="309" y="483.25" width="45" height="26.5" as="geometry"/>
                </mxCell>
                <mxCell id="46" value="" style="edgeStyle=none;html=1;" edge="1" parent="1" source="39" target="45">
                    <mxGeometry relative="1" as="geometry"/>
                </mxCell>
                <mxCell id="48" value="" style="edgeStyle=none;html=1;" edge="1" parent="1" source="39" target="47">
                    <mxGeometry relative="1" as="geometry"/>
                </mxCell>
                <mxCell id="39" value="auxiliar es verde" style="rhombus;whiteSpace=wrap;html=1;fontFamily=Courier New;fillColor=#FFFFFF;fontColor=#000000;rounded=1;labelBackgroundColor=none;fillStyle=auto;gradientColor=none;strokeWidth=1;" vertex="1" parent="1">
                    <mxGeometry x="395" y="600" width="80" height="80" as="geometry"/>
                </mxCell>
                <mxCell id="50" value="" style="edgeStyle=none;html=1;" edge="1" parent="1" source="45" target="49">
                    <mxGeometry relative="1" as="geometry"/>
                </mxCell>
                <mxCell id="54" value="" style="edgeStyle=none;html=1;" edge="1" parent="1" source="45" target="53">
                    <mxGeometry relative="1" as="geometry"/>
                </mxCell>
                <mxCell id="45" value="color igual verde" style="rhombus;whiteSpace=wrap;html=1;fontFamily=Courier New;fillColor=#FFFFFF;fontColor=#000000;rounded=1;labelBackgroundColor=none;fillStyle=auto;gradientColor=none;strokeWidth=1;" vertex="1" parent="1">
                    <mxGeometry x="275" y="600" width="105" height="80" as="geometry"/>
                </mxCell>
                <mxCell id="52" value="" style="edgeStyle=none;html=1;" edge="1" parent="1" source="47" target="51">
                    <mxGeometry relative="1" as="geometry"/>
                </mxCell>
                <mxCell id="56" value="" style="edgeStyle=none;html=1;" edge="1" parent="1" source="47" target="55">
                    <mxGeometry relative="1" as="geometry"/>
                </mxCell>
                <mxCell id="47" value="color igual verde" style="rhombus;whiteSpace=wrap;html=1;fontFamily=Courier New;fillColor=#FFFFFF;fontColor=#000000;rounded=1;labelBackgroundColor=none;fillStyle=auto;gradientColor=none;strokeWidth=1;" vertex="1" parent="1">
                    <mxGeometry x="491" y="600" width="100" height="80" as="geometry"/>
                </mxCell>
                <mxCell id="70" style="edgeStyle=orthogonalEdgeStyle;html=1;" edge="1" parent="1" source="49" target="67">
                    <mxGeometry relative="1" as="geometry">
                        <Array as="points">
                            <mxPoint x="330" y="780"/>
                        </Array>
                    </mxGeometry>
                </mxCell>
                <mxCell id="49" value="cantidad&lt;br&gt;auxliar=verde" style="whiteSpace=wrap;html=1;fontFamily=Courier New;fillColor=#FFFFFF;fontColor=#000000;rounded=1;labelBackgroundColor=none;fillStyle=auto;gradientColor=none;strokeWidth=1;" vertex="1" parent="1">
                    <mxGeometry x="280" y="700" width="100" height="30" as="geometry"/>
                </mxCell>
                <mxCell id="71" style="edgeStyle=orthogonalEdgeStyle;html=1;" edge="1" parent="1" source="51" target="67">
                    <mxGeometry relative="1" as="geometry">
                        <Array as="points">
                            <mxPoint x="541" y="780"/>
                        </Array>
                    </mxGeometry>
                </mxCell>
                <mxCell id="51" value="cantidad&lt;br&gt;auxliar=verde" style="whiteSpace=wrap;html=1;fontFamily=Courier New;fillColor=#FFFFFF;fontColor=#000000;rounded=1;labelBackgroundColor=none;fillStyle=auto;gradientColor=none;strokeWidth=1;" vertex="1" parent="1">
                    <mxGeometry x="492.25" y="700" width="97.75" height="30" as="geometry"/>
                </mxCell>
                <mxCell id="58" value="" style="edgeStyle=none;html=1;" edge="1" parent="1" source="53" target="57">
                    <mxGeometry relative="1" as="geometry"/>
                </mxCell>
                <mxCell id="62" value="" style="edgeStyle=none;html=1;" edge="1" parent="1" source="53" target="61">
                    <mxGeometry relative="1" as="geometry"/>
                </mxCell>
                <mxCell id="53" value="color = color entrada" style="rhombus;whiteSpace=wrap;html=1;fontFamily=Courier New;fillColor=#FFFFFF;fontColor=#000000;rounded=1;labelBackgroundColor=none;fillStyle=auto;gradientColor=none;strokeWidth=1;" vertex="1" parent="1">
                    <mxGeometry x="138" y="606" width="120" height="68" as="geometry"/>
                </mxCell>
                <mxCell id="60" value="" style="edgeStyle=none;html=1;" edge="1" parent="1" source="55" target="59">
                    <mxGeometry relative="1" as="geometry"/>
                </mxCell>
                <mxCell id="64" value="" style="edgeStyle=none;html=1;" edge="1" parent="1" source="55" target="63">
                    <mxGeometry relative="1" as="geometry"/>
                </mxCell>
                <mxCell id="55" value="color = color entrada" style="rhombus;whiteSpace=wrap;html=1;fontFamily=Courier New;fillColor=#FFFFFF;fontColor=#000000;rounded=1;labelBackgroundColor=none;fillStyle=auto;gradientColor=none;strokeWidth=1;" vertex="1" parent="1">
                    <mxGeometry x="607" y="610" width="120" height="60" as="geometry"/>
                </mxCell>
                <mxCell id="69" style="edgeStyle=orthogonalEdgeStyle;html=1;" edge="1" parent="1" source="57" target="67">
                    <mxGeometry relative="1" as="geometry">
                        <Array as="points">
                            <mxPoint x="200" y="780"/>
                        </Array>
                    </mxGeometry>
                </mxCell>
                <mxCell id="57" value="cantidad&lt;br&gt;auxliar=SI" style="whiteSpace=wrap;html=1;fontFamily=Courier New;fillColor=#FFFFFF;fontColor=#000000;rounded=1;labelBackgroundColor=none;fillStyle=auto;gradientColor=none;strokeWidth=1;" vertex="1" parent="1">
                    <mxGeometry x="150" y="700" width="96" height="30" as="geometry"/>
                </mxCell>
                <mxCell id="72" style="edgeStyle=orthogonalEdgeStyle;html=1;" edge="1" parent="1" source="59" target="67">
                    <mxGeometry relative="1" as="geometry">
                        <Array as="points">
                            <mxPoint x="669" y="780"/>
                        </Array>
                    </mxGeometry>
                </mxCell>
                <mxCell id="59" value="cantidad + apuesta&lt;br&gt;auxliar=NO" style="whiteSpace=wrap;html=1;fontFamily=Courier New;fillColor=#FFFFFF;fontColor=#000000;rounded=1;labelBackgroundColor=none;fillStyle=auto;gradientColor=none;strokeWidth=1;" vertex="1" parent="1">
                    <mxGeometry x="615.75" y="700" width="106.5" height="40" as="geometry"/>
                </mxCell>
                <mxCell id="68" value="" style="edgeStyle=orthogonalEdgeStyle;html=1;" edge="1" parent="1" source="61" target="67">
                    <mxGeometry relative="1" as="geometry">
                        <Array as="points">
                            <mxPoint x="80" y="780"/>
                        </Array>
                    </mxGeometry>
                </mxCell>
                <mxCell id="61" value="cantidad - apuesta&lt;br&gt;auxliar=NO" style="whiteSpace=wrap;html=1;fontFamily=Courier New;fillColor=#FFFFFF;fontColor=#000000;rounded=1;labelBackgroundColor=none;fillStyle=auto;gradientColor=none;strokeWidth=1;" vertex="1" parent="1">
                    <mxGeometry x="40" y="610" width="80" height="60" as="geometry"/>
                </mxCell>
                <mxCell id="74" style="edgeStyle=orthogonalEdgeStyle;html=1;entryX=1;entryY=0.5;entryDx=0;entryDy=0;" edge="1" parent="1" source="63" target="67">
                    <mxGeometry relative="1" as="geometry">
                        <Array as="points">
                            <mxPoint x="780" y="780"/>
                        </Array>
                    </mxGeometry>
                </mxCell>
                <mxCell id="63" value="cantidad - apuesta&lt;br&gt;auxliar=NO" style="whiteSpace=wrap;html=1;fontFamily=Courier New;fillColor=#FFFFFF;fontColor=#000000;rounded=1;labelBackgroundColor=none;fillStyle=auto;gradientColor=none;strokeWidth=1;" vertex="1" parent="1">
                    <mxGeometry x="744" y="620" width="80" height="40" as="geometry"/>
                </mxCell>
                <mxCell id="65" value="SI" style="text;html=1;strokeColor=none;fillColor=none;align=center;verticalAlign=middle;whiteSpace=wrap;rounded=0;" vertex="1" parent="1">
                    <mxGeometry x="363.75" y="610" width="60" height="30" as="geometry"/>
                </mxCell>
                <mxCell id="66" value="NO" style="text;html=1;strokeColor=none;fillColor=none;align=center;verticalAlign=middle;whiteSpace=wrap;rounded=0;" vertex="1" parent="1">
                    <mxGeometry x="451" y="614" width="60" height="30" as="geometry"/>
                </mxCell>
                <mxCell id="75" style="edgeStyle=orthogonalEdgeStyle;html=1;entryX=0;entryY=0.5;entryDx=0;entryDy=0;" edge="1" parent="1" source="67" target="27">
                    <mxGeometry relative="1" as="geometry">
                        <mxPoint x="20" y="540" as="targetPoint"/>
                        <Array as="points">
                            <mxPoint x="432" y="840"/>
                            <mxPoint x="20" y="840"/>
                            <mxPoint x="20" y="338"/>
                        </Array>
                    </mxGeometry>
                </mxCell>
                <mxCell id="67" value="Agregar los datos de la iteracion y actualizar datos" style="whiteSpace=wrap;html=1;fontFamily=Courier New;fillColor=#FFFFFF;fontColor=#000000;rounded=1;labelBackgroundColor=none;fillStyle=auto;gradientColor=none;strokeWidth=1;" vertex="1" parent="1">
                    <mxGeometry x="372.25" y="750" width="120" height="60" as="geometry"/>
                </mxCell>
                <mxCell id="76" value="FIN" style="whiteSpace=wrap;html=1;fontFamily=Courier New;fillColor=#FFFFFF;fontColor=#000000;rounded=1;labelBackgroundColor=none;fillStyle=auto;gradientColor=none;strokeWidth=1;" vertex="1" parent="1">
                    <mxGeometry x="530" y="326.58000000000004" width="35" height="22.28" as="geometry"/>
                </mxCell>
                <mxCell id="78" value="SI" style="text;html=1;strokeColor=none;fillColor=none;align=center;verticalAlign=middle;whiteSpace=wrap;rounded=0;" vertex="1" parent="1">
                    <mxGeometry x="315" y="670" width="60" height="30" as="geometry"/>
                </mxCell>
                <mxCell id="79" value="NO" style="text;html=1;strokeColor=none;fillColor=none;align=center;verticalAlign=middle;whiteSpace=wrap;rounded=0;" vertex="1" parent="1">
                    <mxGeometry x="240" y="606" width="60" height="30" as="geometry"/>
                </mxCell>
                <mxCell id="80" value="NO" style="text;html=1;strokeColor=none;fillColor=none;align=center;verticalAlign=middle;whiteSpace=wrap;rounded=0;" vertex="1" parent="1">
                    <mxGeometry x="103" y="614" width="60" height="30" as="geometry"/>
                </mxCell>
                <mxCell id="82" value="SI" style="text;html=1;strokeColor=none;fillColor=none;align=center;verticalAlign=middle;whiteSpace=wrap;rounded=0;" vertex="1" parent="1">
                    <mxGeometry x="180" y="670" width="60" height="30" as="geometry"/>
                </mxCell>
                <mxCell id="83" value="SI" style="text;html=1;strokeColor=none;fillColor=none;align=center;verticalAlign=middle;whiteSpace=wrap;rounded=0;" vertex="1" parent="1">
                    <mxGeometry x="519.5" y="671" width="60" height="30" as="geometry"/>
                </mxCell>
                <mxCell id="84" value="SI" style="text;html=1;strokeColor=none;fillColor=none;align=center;verticalAlign=middle;whiteSpace=wrap;rounded=0;" vertex="1" parent="1">
                    <mxGeometry x="650" y="670" width="60" height="30" as="geometry"/>
                </mxCell>
                <mxCell id="85" value="NO" style="text;html=1;strokeColor=none;fillColor=none;align=center;verticalAlign=middle;whiteSpace=wrap;rounded=0;" vertex="1" parent="1">
                    <mxGeometry x="570" y="612" width="60" height="30" as="geometry"/>
                </mxCell>
                <mxCell id="86" value="NO" style="text;html=1;strokeColor=none;fillColor=none;align=center;verticalAlign=middle;whiteSpace=wrap;rounded=0;" vertex="1" parent="1">
                    <mxGeometry x="700" y="614" width="60" height="30" as="geometry"/>
                </mxCell>
            </root>
        </mxGraphModel>
    </diagram>
</mxfile>